# xmcd
#
# Track frame offsets:
#	150
#	12688
#	25862
#	34490
#	47879
#	60306
#	71760
#	81003
#	93090
#	102990
#	111574
#	122817
#	137031
#	145876
#	157169
#	168137
#	178655
#	195473
#	208736
#	222839
#	234573
#	246772
#	258718
#	271354
#	283589
#	296519
#	309566
#	319866
#	331326
#
# Disc length: 4580 seconds
#
# Revision: 1
# Processed by: cddbd v1.5.2PL0 Copyright (c) Steve Scherf et al.
# Submitted via: audiograbber 1.83.01
#
DISCID=bd11e21d
DTITLE=Jerry Lee Lewis - A Whole Lotta Jerry Lee Lewis CD1
DYEAR=2012
DGENRE=Country
TTITLE0=Crazy Arms
TTITLE1=Whole Lotta Shakin' Goin' On
TTITLE2=Great Balls Of Fire
TTITLE3=You Win Again
TTITLE4=Breathless
TTITLE5=High School Confidential
TTITLE6=Lewis Boogie
TTITLE7=Break Up
TTITLE8=I'll Sail My Ship Alone
TTITLE9=Lovin' Up A Storm
TTITLE10=What'd I Say
TTITLE11=Cold Cold Heart
TTITLE12=Hit The Road Jack
TTITLE13=Pen And Paper
TTITLE14=I'm On Fire
TTITLE15=She Was My Baby (He Was My Friend)
TTITLE16=High Heel Sneakers
TTITLE17=Just In Time
TTITLE18=Baby, Hold Me Close
TTITLE19=I Believe In You
TTITLE20=Green Green Grass Of Home
TTITLE21=Baby, You've Got What It Takes
TTITLE22=Detroit City
TTITLE23=Rockin' Jerry Lee
TTITLE24=Memphis Beat
TTITLE25=Big Boss Man
TTITLE26=It's A Hang Up Baby
TTITLE27=Turn On Your Lovelight
TTITLE28=Shotgun Man
EXTD=
EXTT0=
EXTT1=
EXTT2=
EXTT3=
EXTT4=
EXTT5=
EXTT6=
EXTT7=
EXTT8=
EXTT9=
EXTT10=
EXTT11=
EXTT12=
EXTT13=
EXTT14=
EXTT15=
EXTT16=
EXTT17=
EXTT18=
EXTT19=
EXTT20=
EXTT21=
EXTT22=
EXTT23=
EXTT24=
EXTT25=
EXTT26=
EXTT27=
EXTT28=
PLAYORDER=
